<svg xmlns="http://www.w3.org/2000/svg" viewBox="0 0 670.7 329.51">
  <defs>
    <style>
      .cls-1 {
        fill: #e0efff;
      }

      .cls-2 {
        fill: #f4f5fa;
      }

      .cls-3, .cls-5, .cls-6, .cls-7, .cls-8 {
        fill: none;
        stroke-miterlimit: 10;
        stroke-width: 4px;
      }

      .cls-3, .cls-5, .cls-6, .cls-7 {
        stroke: #e0efff;
      }

      .cls-13, .cls-4 {
        fill: #fff;
      }

      .cls-5, .cls-6, .cls-7, .cls-8 {
        stroke-linecap: round;
      }

      .cls-5, .cls-7, .cls-8 {
        stroke-linejoin: round;
      }

      .cls-5, .cls-6 {
        stroke-dasharray: 16.001;
      }

      .cls-8 {
        stroke: #fff;
      }

      .cls-9 {
        fill: #373760;
      }

      .cls-10 {
        fill: #21214c;
      }

      .cls-11, .cls-12, .cls-13 {
        opacity: 0.5;
      }

      .cls-12 {
        fill: #dadada;
      }

      .cls-14 {
        fill: #28285f;
      }
    </style>
  </defs>
  <g id="Group_225" data-name="Group 225" transform="translate(0 0)">
    <path id="Path_115" data-name="Path 115" class="cls-1" d="M546.3,300.5v-6.3l-3.8-.6a13.357,13.357,0,0,0-.7-1.8l2.2-3.1-4.4-4.4-3.1,2.2a9.625,9.625,0,0,0-1.8-.7l-.6-3.8h-6.2l-.6,3.8a13.354,13.354,0,0,0-1.8.7l-3.1-2.2-4.4,4.4,2.2,3.1a9.627,9.627,0,0,0-.7,1.8l-3.8.6v6.3l3.8.6a13.357,13.357,0,0,0,.7,1.8L518,306l4.4,4.4,3.1-2.2a9.625,9.625,0,0,0,1.8.7l.6,3.8h6.2l.6-3.8a13.354,13.354,0,0,0,1.8-.7l3.1,2.2L544,306l-2.2-3.1a9.627,9.627,0,0,0,.7-1.8Zm-15.4,5.2a8.4,8.4,0,1,1,8.4-8.4A8.451,8.451,0,0,1,530.9,305.7Z"/>
    <path id="Path_116" data-name="Path 116" class="cls-2" d="M338.6,255.2H319.1V233.5a9.347,9.347,0,0,1,9.3-9.3h.9a9.347,9.347,0,0,1,9.3,9.3v21.7Z"/>
    <path id="Path_117" data-name="Path 117" class="cls-2" d="M282.4,224.2a9.923,9.923,0,0,0-9.9,9.9v58.3H319V234a9.816,9.816,0,0,1,9.8-9.8H282.4Z"/>
    <path id="Path_118" data-name="Path 118" class="cls-2" d="M633.3,231.8a24.6,24.6,0,0,1,9,47.5,29.609,29.609,0,0,0,7,8.1l-2.4-.3a25.077,25.077,0,0,1-12.2-6h-1.5a24.65,24.65,0,0,1,.1-49.3Z"/>
    <path id="Path_119" data-name="Path 119" class="cls-2" d="M577.8,51.5H533.4a7.6,7.6,0,0,1-7.6-7.6V12.3a7.6,7.6,0,0,1,7.6-7.6h44.4a7.6,7.6,0,0,1,7.6,7.6V43.9A7.6,7.6,0,0,1,577.8,51.5Z"/>
    <path id="Path_120" data-name="Path 120" class="cls-2" d="M438.8,194a185,185,0,0,1-25.3-31.1,54.166,54.166,0,0,1-61.7-86.6,55.861,55.861,0,0,0-9,86.3A55.45,55.45,0,0,0,382.3,179a54.654,54.654,0,0,0,21.7-4.4,192.948,192.948,0,0,0,24.7,30.2c21.8,21.8,45.8,36.5,59.7,36.5h0c3.8,0,6.7-1.1,8.8-3.1,2-2,3-4.9,3-8.4C488.3,232.3,462.7,217.9,438.8,194Z"/>
    <path id="Path_121" data-name="Path 121" class="cls-2" d="M464.2,213.4H228.9a17.669,17.669,0,0,1-17.7-17.7V46.9a17.669,17.669,0,0,1,17.7-17.7H464.2a17.669,17.669,0,0,1,17.7,17.7V195.7A17.669,17.669,0,0,1,464.2,213.4Z"/>
    <path id="Path_122" data-name="Path 122" class="cls-1" d="M248,11.3l19.2,27.3H460.6V23.7a12.4,12.4,0,0,0-12.4-12.4H248Z"/>
    <path id="Path_123" data-name="Path 123" class="cls-2" d="M202.6,11.3H248l19.2,27.3H460.6V183.1a12.4,12.4,0,0,1-12.4,12.4H202.6Z"/>
    <path id="Path_124" data-name="Path 124" class="cls-3" d="M443,195.5H207.6a17.669,17.669,0,0,1-17.7-17.7V29a17.669,17.669,0,0,1,17.7-17.7H443A17.669,17.669,0,0,1,460.7,29V177.8A17.8,17.8,0,0,1,443,195.5Z"/>
    <path id="Path_125" data-name="Path 125" class="cls-3" d="M248,11.3l19.2,27.3H460.6"/>
    <path id="Path_126" data-name="Path 126" class="cls-2" d="M400.3,25a4.225,4.225,0,0,0-4.2-4.2A4.14,4.14,0,0,0,392,25a4.225,4.225,0,0,0,4.2,4.2A4.14,4.14,0,0,0,400.3,25Z"/>
    <path id="Path_127" data-name="Path 127" class="cls-2" d="M422.3,25a4.2,4.2,0,1,0-4.2,4.2A4.225,4.225,0,0,0,422.3,25Z"/>
    <path id="Path_128" data-name="Path 128" class="cls-2" d="M444.2,25a4.2,4.2,0,1,0-4.2,4.2A4.161,4.161,0,0,0,444.2,25Z"/>
    <path id="Path_129" data-name="Path 129" class="cls-4" d="M388.9,132.2H261.7a19.418,19.418,0,0,1-19.4-19.4V111a19.418,19.418,0,0,1,19.4-19.4H388.9A19.418,19.418,0,0,1,408.3,111v1.8A19.483,19.483,0,0,1,388.9,132.2Z"/>
    <g id="Group_218" data-name="Group 218">
      <path id="Path_130" data-name="Path 130" class="cls-1" d="M279.8,116.1l-2.5,7.6h-3.2l8.2-24.1h3.8l8.2,24.1H291l-2.6-7.6Zm7.9-2.5-2.4-6.9c-.5-1.6-.9-3-1.3-4.4h0c-.4,1.4-.8,2.9-1.2,4.4l-2.4,7h7.3Z"/>
    </g>
    <line id="Line_78" data-name="Line 78" class="cls-3" x2="22.5" transform="translate(304.4 105.7)"/>
    <line id="Line_79" data-name="Line 79" class="cls-3" x2="22.5" transform="translate(304.4 120.8)"/>
    <line id="Line_80" data-name="Line 80" class="cls-3" x2="57.2" transform="translate(273.2 135.9)"/>
    <line id="Line_81" data-name="Line 81" class="cls-3" x2="65.2" transform="translate(273.2 150.9)"/>
    <line id="Line_82" data-name="Line 82" class="cls-3" x2="79.6" transform="translate(273.2 166)"/>
    <path id="Path_131" data-name="Path 131" class="cls-2" d="M585,279.4v-8.2l-5-.8a15.951,15.951,0,0,0-1-2.3l2.9-4.1-5.8-5.8-4.1,2.9a15.956,15.956,0,0,0-2.3-1l-.8-5h-8.2l-.8,5a15.956,15.956,0,0,0-2.3,1l-4.1-2.9-5.8,5.8,2.9,4.1a15.952,15.952,0,0,0-1,2.3l-5,.8v8.2l5,.8a15.951,15.951,0,0,0,1,2.3l-2.9,4.1,5.8,5.8,4.1-2.9a15.956,15.956,0,0,0,2.3,1l.8,5h8.2l.8-5a15.956,15.956,0,0,0,2.3-1l4.1,2.9,5.8-5.8-2.9-4.1a15.952,15.952,0,0,0,1-2.3Zm-20.3,6.8a11,11,0,1,1,11-11A10.968,10.968,0,0,1,564.7,286.2Z"/>
    <path id="Path_132" data-name="Path 132" class="cls-5" d="M460.6,123.4h18.5a37.194,37.194,0,0,1,37.2,37.2v22a49.591,49.591,0,0,0,49.6,49.6h0a49.591,49.591,0,0,0,49.6-49.6h0a35.977,35.977,0,0,1,36-36h17.2"/>
    <path id="Path_133" data-name="Path 133" class="cls-6" d="M189.9,176.5H153.1A62.1,62.1,0,0,1,91,114.4V84.9A62.1,62.1,0,0,0,28.9,22.8H2"/>
    <g id="Group_219" data-name="Group 219">
      <path id="Path_134" data-name="Path 134" class="cls-2" d="M134.2,207.8a11.482,11.482,0,0,0-1.9.1,21.114,21.114,0,0,0,.2-2.6,16.092,16.092,0,0,0-31.8-3.5,12.745,12.745,0,0,0-2.8-.2,16.1,16.1,0,0,0,0,32.2h36.3a13,13,0,0,0,0-26Z"/>
      <path id="Path_135" data-name="Path 135" class="cls-3" d="M128.7,203.4a11.482,11.482,0,0,0-1.9.1,21.115,21.115,0,0,0,.2-2.6,16.092,16.092,0,0,0-31.8-3.5,12.745,12.745,0,0,0-2.8-.2,16.1,16.1,0,0,0,0,32.2h36.3a13,13,0,0,0,0-26Z"/>
      <path id="Path_136" data-name="Path 136" class="cls-4" d="M117.9,222.8v-17H100.2v17H93.5l15.6,19.1,15.6-19.1Z"/>
      <path id="Path_137" data-name="Path 137" class="cls-7" d="M117.9,222.8v-17H100.2v17H93.5l15.6,19.1,15.6-19.1Z"/>
    </g>
    <path id="Path_138" data-name="Path 138" class="cls-6" d="M119.2,322.8V284.1a33.246,33.246,0,0,1,33.2-33.2h59.9a39.52,39.52,0,0,0,39.5-39.5V195.6"/>
    <path id="Path_139" data-name="Path 139" class="cls-6" d="M2,162.3H16.9A32.712,32.712,0,0,1,49.6,195V322.8"/>
    <path id="Path_140" data-name="Path 140" class="cls-5" d="M462,67.6H583.1a28.231,28.231,0,0,0,28.2-28.2h0a28.231,28.231,0,0,1,28.2-28.2h28.9"/>
    <g id="Group_220" data-name="Group 220">
      <path id="Path_141" data-name="Path 141" class="cls-3" d="M521.7,83.7h-6.8c-4,0-7.3,2.6-7.3,5.9h0c0,3.2,3.3,5.9,7.3,5.9h2c2.7,0,4.8,1.7,4.8,3.9h0c0,2.2-2.2,3.9-4.8,3.9h-9.3"/>
      <line id="Line_83" data-name="Line 83" class="cls-3" y1="6.2" transform="translate(514.9 77.5)"/>
      <line id="Line_84" data-name="Line 84" class="cls-3" y1="6.3" transform="translate(514.9 103.2)"/>
    </g>
    <g id="Group_221" data-name="Group 221">
      <ellipse id="Ellipse_21" data-name="Ellipse 21" class="cls-2" cx="30.2" cy="22.6" rx="30.2" ry="22.6" transform="translate(597.5 75.5)"/>
      <circle id="Ellipse_22" data-name="Ellipse 22" class="cls-4" cx="13.4" cy="13.4" r="13.4" transform="translate(610.4 78.5)"/>
      <ellipse id="Ellipse_23" data-name="Ellipse 23" class="cls-3" cx="30.2" cy="22.6" rx="30.2" ry="22.6" transform="translate(593.6 69.3)"/>
      <circle id="Ellipse_24" data-name="Ellipse 24" class="cls-3" cx="13.4" cy="13.4" r="13.4" transform="translate(610.4 78.5)"/>
    </g>
    <path id="Path_142" data-name="Path 142" class="cls-3" d="M589.4,214.9H548.2a8.28,8.28,0,0,1-8.3-8.3V132.1a8.28,8.28,0,0,1,8.3-8.3h41.2a8.28,8.28,0,0,1,8.3,8.3v74.5A8.28,8.28,0,0,1,589.4,214.9Z"/>
    <path id="Path_143" data-name="Path 143" class="cls-3" d="M589.7,207.7H547.9a7.917,7.917,0,0,1-7.9-7.9V139.2a7.917,7.917,0,0,1,7.9-7.9h41.8a7.917,7.917,0,0,1,7.9,7.9v60.6A7.853,7.853,0,0,1,589.7,207.7Z"/>
    <path id="Path_144" data-name="Path 144" class="cls-1" d="M589.7,207.7H547.9a7.917,7.917,0,0,1-7.9-7.9V139.2a7.917,7.917,0,0,1,7.9-7.9h41.8a7.917,7.917,0,0,1,7.9,7.9v60.6A7.853,7.853,0,0,1,589.7,207.7Z"/>
    <path id="Path_145" data-name="Path 145" class="cls-8" d="M559.4,164.8l9.4,8.8,11.6-17.2"/>
    <path id="Path_146" data-name="Path 146" class="cls-3" d="M573.2,45.1h-46a5.549,5.549,0,0,1-5.5-5.5V7.5A5.549,5.549,0,0,1,527.2,2h11.5a5.606,5.606,0,0,1,4,1.7l6,6.2h24.6a5.549,5.549,0,0,1,5.5,5.5V39.6A5.569,5.569,0,0,1,573.2,45.1Z"/>
    <path id="Path_147" data-name="Path 147" class="cls-3" d="M626.9,231.8a24.6,24.6,0,0,1,9,47.5,29.609,29.609,0,0,0,7,8.1l-2.4-.3a25.077,25.077,0,0,1-12.2-6h-1.5a24.65,24.65,0,0,1,.1-49.3Z"/>
    <line id="Line_85" data-name="Line 85" class="cls-6" y2="127.3" transform="translate(407.7 195.5)"/>
    <path id="Path_148" data-name="Path 148" class="cls-3" d="M331.1,251.2H311.6V229.5a9.347,9.347,0,0,1,9.3-9.3h.9a9.347,9.347,0,0,1,9.3,9.3v21.7Z"/>
    <path id="Path_149" data-name="Path 149" class="cls-3" d="M274.9,220.2a9.923,9.923,0,0,0-9.9,9.9v54.3h46.5V229.9a9.816,9.816,0,0,1,9.8-9.8H274.9Z"/>
    <g id="Group_224" data-name="Group 224">
      <g id="Group_223" data-name="Group 223">
        <rect id="Rectangle_266" data-name="Rectangle 266" class="cls-9" width="13.1" height="39.2" transform="translate(433.087 190.926) rotate(-28.68)"/>
        <path id="Path_150" data-name="Path 150" class="cls-10" d="M453.1,200.2,446,187.3a64.238,64.238,0,0,1-5.6,3.4c-1.9,1-3.9,2-5.9,2.9l7.1,12.9a64.472,64.472,0,0,0,5.9-2.9A52.119,52.119,0,0,0,453.1,200.2Z"/>
        <g id="Group_222" data-name="Group 222" class="cls-11">
          <circle id="Ellipse_25" data-name="Ellipse 25" class="cls-12" cx="67.4" cy="67.4" r="67.4" transform="translate(325.437 74.485) rotate(-11.94)"/>
        </g>
        <path id="Path_151" data-name="Path 151" class="cls-13" d="M350.6,121.3a3.627,3.627,0,0,1-2.5.4,4.062,4.062,0,0,1-3.4-4.6,65.7,65.7,0,0,1,3.3-12.5,4.021,4.021,0,1,1,7.5,2.9,58.4,58.4,0,0,0-2.9,10.9A3.92,3.92,0,0,1,350.6,121.3Z"/>
        <path id="Path_152" data-name="Path 152" class="cls-13" d="M380.9,180.9a3.945,3.945,0,0,1-3.8,0,61.335,61.335,0,0,1-25.7-25,59.93,59.93,0,0,1-6.3-17.3,4.079,4.079,0,0,1,8-1.6,54.131,54.131,0,0,0,5.5,15,51.894,51.894,0,0,0,22.3,21.7,3.915,3.915,0,0,1,1.7,5.4A3.737,3.737,0,0,1,380.9,180.9Z"/>
        <path id="Path_153" data-name="Path 153" class="cls-14" d="M365.9,54.4A82.075,82.075,0,1,0,477.3,87,82.011,82.011,0,0,0,365.9,54.4Zm71.7,131.2a67.418,67.418,0,1,1,26.8-91.5A67.362,67.362,0,0,1,437.6,185.6Z"/>
        <rect id="Rectangle_267" data-name="Rectangle 267" class="cls-9" width="23.2" height="116" transform="translate(447.498 227.743) rotate(-28.68)"/>
        <rect id="Rectangle_268" data-name="Rectangle 268" class="cls-10" width="4.6" height="116" transform="translate(450.335 226.118) rotate(-28.68)"/>
        <rect id="Rectangle_269" data-name="Rectangle 269" class="cls-14" width="7.6" height="116" transform="translate(461.117 220.231) rotate(-28.68)"/>
      </g>
    </g>
  </g>
</svg>
