<svg xmlns="http://www.w3.org/2000/svg" viewBox="1664 -455 70 53">
  <defs>
    <style>
      .cls-1 {
        fill: #fff;
      }

      .cls-2 {
        fill: #ed4040;
      }

      .cls-3 {
        fill: none;
      }
    </style>
  </defs>
  <g id="Group_2986" data-name="Group 2986" transform="translate(1664 -455)">
    <g id="Group_2976" data-name="Group 2976">
      <path id="Path_3755" data-name="Path 3755" class="cls-1" d="M18,30.6a11.014,11.014,0,0,1-4.9,1,14.034,14.034,0,0,1-4.7-.8,10.294,10.294,0,0,1-3.7-2.4,9.7,9.7,0,0,1-2.5-3.7A12.292,12.292,0,0,1,1.3,20a12.437,12.437,0,0,1,.9-4.8,11.6,11.6,0,0,1,2.5-3.6A10.476,10.476,0,0,1,8.5,9.3a14.034,14.034,0,0,1,4.7-.8,14.841,14.841,0,0,1,4.6.8,7.65,7.65,0,0,1,3.6,2.4l-3.6,3.6a3.823,3.823,0,0,0-2-1.5,6.963,6.963,0,0,0-2.5-.5,7.512,7.512,0,0,0-2.6.5,5.579,5.579,0,0,0-2,1.4,5.71,5.71,0,0,0-1.3,2.1A7.664,7.664,0,0,0,7,20a7.635,7.635,0,0,0,.5,2.7,5.71,5.71,0,0,0,1.3,2.1,7.183,7.183,0,0,0,2,1.4,6.963,6.963,0,0,0,2.5.5,6.088,6.088,0,0,0,2.8-.6A6,6,0,0,0,18,24.5L21.7,28A11.829,11.829,0,0,1,18,30.6Z"/>
      <path id="Path_3756" data-name="Path 3756" class="cls-1" d="M43.7,31l.1-15.5h-.1L38.1,31H34.4L28.9,15.5h-.1V31h-5V9.1h7.5l5,14.1h.1L41.2,9.1h7.7V31Z"/>
      <path id="Path_3757" data-name="Path 3757" class="cls-1" d="M65,14.8a5.125,5.125,0,0,0-1.8-1.4,5.374,5.374,0,0,0-2.1-.5A4.1,4.1,0,0,0,60,13a3,3,0,0,0-1,.4,2.336,2.336,0,0,0-.7.7,1.8,1.8,0,0,0-.3,1.1,2,2,0,0,0,.2.9,4.62,4.62,0,0,0,.7.7,3.7,3.7,0,0,0,1.1.5c.4.2.9.3,1.4.5.7.2,1.5.5,2.3.8a9.409,9.409,0,0,1,2.2,1.2,5.48,5.48,0,0,1,1.6,1.8,5.38,5.38,0,0,1,.7,2.7,6.711,6.711,0,0,1-.7,3.3,7.1,7.1,0,0,1-1.9,2.3,8.449,8.449,0,0,1-2.7,1.3,11,11,0,0,1-3.1.4,14.351,14.351,0,0,1-4.6-.8,9.31,9.31,0,0,1-3.7-2.3L55,25a6.038,6.038,0,0,0,2.1,1.7,6.755,6.755,0,0,0,2.6.7,3.749,3.749,0,0,0,1.1-.1,3,3,0,0,0,1-.4,2.336,2.336,0,0,0,.7-.7,1.978,1.978,0,0,0,.2-1.1,2.016,2.016,0,0,0-.3-1.1,2.361,2.361,0,0,0-.9-.8c-.4-.2-.9-.5-1.4-.7s-1.2-.4-1.9-.6a18.028,18.028,0,0,1-2.1-.8,5.675,5.675,0,0,1-1.8-1.2A5.936,5.936,0,0,1,53,18.1a6.175,6.175,0,0,1-.5-2.5,5.93,5.93,0,0,1,.7-3.1,5.737,5.737,0,0,1,2-2.1,6.6,6.6,0,0,1,2.7-1.2A15.458,15.458,0,0,1,61,8.8a11.226,11.226,0,0,1,7.2,2.7Z"/>
    </g>
    <g id="Group_2977" data-name="Group 2977">
      <path id="Path_3758" data-name="Path 3758" class="cls-2" d="M.9,46.4V38.1H2.3v8.3Z"/>
    </g>
    <g id="Group_2978" data-name="Group 2978">
      <path id="Path_3759" data-name="Path 3759" class="cls-2" d="M9.8,38.1h1.4v8.4H9.8L5.7,40.3v6.2H4.3V38.1H5.7l4.1,6.2Z"/>
    </g>
    <g id="Group_2979" data-name="Group 2979">
      <path id="Path_3760" data-name="Path 3760" class="cls-2" d="M15.8,39.1a1.689,1.689,0,0,0-1,.3.975.975,0,0,0-.4.9,1.05,1.05,0,0,0,.5.9,3.7,3.7,0,0,0,1.1.5c.4.1.9.2,1.3.3a2.589,2.589,0,0,1,1.1.7,1.978,1.978,0,0,1,.5,1.4,2.465,2.465,0,0,1-.8,1.7,2.817,2.817,0,0,1-2.1.7,3.281,3.281,0,0,1-2.1-.6,2.136,2.136,0,0,1-.8-1.7h1.5a1.268,1.268,0,0,0,.4.9,1.609,1.609,0,0,0,1.1.3,1.366,1.366,0,0,0,1.1-.4.975.975,0,0,0,.4-.9,1.884,1.884,0,0,0-.2-.8,2.092,2.092,0,0,0-.6-.4,2,2,0,0,0-.9-.2l-.9-.3a3.552,3.552,0,0,1-.9-.4,1.344,1.344,0,0,1-.6-.7c-.1-.3-.5-.5-.5-.9a2.5,2.5,0,0,1,.8-1.8,3.221,3.221,0,0,1,2-.7,3.173,3.173,0,0,1,2,.6,2,2,0,0,1,.8,1.7H17.1a1.2,1.2,0,0,0-1.3-1.1Z"/>
    </g>
    <g id="Group_2980" data-name="Group 2980">
      <path id="Path_3761" data-name="Path 3761" class="cls-2" d="M20.7,43.4V38.1H22v5.3a1.9,1.9,0,1,0,3.8,0V38.1h1.4v5.3a2.869,2.869,0,0,1-.9,2.3,3.706,3.706,0,0,1-4.6,0A2.927,2.927,0,0,1,20.7,43.4Z"/>
    </g>
    <g id="Group_2981" data-name="Group 2981">
      <path id="Path_3762" data-name="Path 3762" class="cls-2" d="M30.6,43v3.4H29.2V38.1h2.9a3.069,3.069,0,0,1,2.2.7,2.5,2.5,0,0,1,.8,1.8,2.456,2.456,0,0,1-.5,1.5A3.072,3.072,0,0,1,33,43l2.2,3.5H33.5L31.4,43Zm0-3.8V42h1.5a1.594,1.594,0,0,0,1.2-.4,1.284,1.284,0,0,0,.4-1,1.159,1.159,0,0,0-.4-1,1.9,1.9,0,0,0-1.2-.4H30.6Z"/>
    </g>
    <g id="Group_2982" data-name="Group 2982">
      <path id="Path_3763" data-name="Path 3763" class="cls-2" d="M42.7,46.4l-.6-1.7H38.6L38,46.4H36.6l3-8.4h1.6l3,8.4Zm-3.8-2.7h2.7l-1.4-3.9Z"/>
    </g>
    <g id="Group_2983" data-name="Group 2983">
      <path id="Path_3764" data-name="Path 3764" class="cls-2" d="M51.1,38.1h1.4v8.4H51.1L47,40.2v6.2H45.6V38H47l4.1,6.2Z"/>
    </g>
    <g id="Group_2984" data-name="Group 2984">
      <path id="Path_3765" data-name="Path 3765" class="cls-2" d="M55.3,45.3a4.143,4.143,0,0,1-1.2-3.1,4.3,4.3,0,0,1,1.2-3.1,4.07,4.07,0,0,1,3-1.2,3.986,3.986,0,0,1,2.4.7,3.581,3.581,0,0,1,1.5,1.9H60.6a2.374,2.374,0,0,0-2.2-1.3,3.227,3.227,0,0,0-2.1.8,3.425,3.425,0,0,0,0,4.4,2.52,2.52,0,0,0,2.1.8,2.217,2.217,0,0,0,2.2-1.3h1.6a3.353,3.353,0,0,1-1.5,1.8,4.751,4.751,0,0,1-2.4.6A3.3,3.3,0,0,1,55.3,45.3Z"/>
    </g>
    <g id="Group_2985" data-name="Group 2985">
      <path id="Path_3766" data-name="Path 3766" class="cls-2" d="M68.7,38.1v1.1H65.5v2.5h2.9v1.1H65.5v2.6h3.2v1.1H64V38.1h4.7Z"/>
    </g>
    <rect id="Rectangle_3787" data-name="Rectangle 3787" class="cls-3" width="70" height="53"/>
  </g>
</svg>
