<svg xmlns="http://www.w3.org/2000/svg" xmlns:xlink="http://www.w3.org/1999/xlink" viewBox="182 328 11 11">
  <defs>
    <style>
      .cls-1 {
        clip-path: url(#clip-path);
      }

      .cls-2 {
        fill: #fff;
      }
    </style>
    <clipPath id="clip-path">
      <rect id="Rectangle_2" data-name="Rectangle 2" width="11" height="11"/>
    </clipPath>
  </defs>
  <g id="Group_2" data-name="Group 2" transform="translate(182 328)">
    <g id="Group_1" data-name="Group 1" class="cls-1">
      <path id="Path_1" data-name="Path 1" class="cls-2" d="M5.2,5.8a.645.645,0,0,1-.6-.6.645.645,0,0,1,.6-.6.645.645,0,0,1,.6.6A.645.645,0,0,1,5.2,5.8Zm0-2.2A1.538,1.538,0,0,0,3.7,5.1,1.538,1.538,0,0,0,5.2,6.6,1.391,1.391,0,0,0,6.7,5.2,1.561,1.561,0,0,0,5.2,3.6Zm0,3.7A2.135,2.135,0,0,1,3,5.2a2.2,2.2,0,0,1,4.4,0A2.135,2.135,0,0,1,5.2,7.3Zm0-4.9A2.862,2.862,0,0,0,2.4,5.2,2.8,2.8,0,1,0,5.2,2.4ZM9.4,7.3a1.7,1.7,0,0,0-1.8.3,1.529,1.529,0,0,0-.3,1.8,1.445,1.445,0,0,1-.7.2,1.539,1.539,0,0,0-1.5-1,1.412,1.412,0,0,0-1.4,1,1.421,1.421,0,0,1-.6-.2,1.7,1.7,0,0,0-.3-1.8,1.594,1.594,0,0,0-1.2-.4,1.268,1.268,0,0,0-.6.1,4.875,4.875,0,0,1-.3-.7,1.539,1.539,0,0,0,1-1.5,1.638,1.638,0,0,0-1-1.5A2.186,2.186,0,0,0,1,3.1a1.268,1.268,0,0,0,.6.1,1.606,1.606,0,0,0,1.1-.5A1.534,1.534,0,0,0,3.1,1L3.7.7a1.539,1.539,0,0,0,1.5,1A1.638,1.638,0,0,0,6.7.7l.6.3a1.529,1.529,0,0,0,.3,1.8,2.1,2.1,0,0,0,1.1.4,1.268,1.268,0,0,0,.6-.1l.3.6a1.539,1.539,0,0,0-1,1.5,1.638,1.638,0,0,0,1,1.5A1.421,1.421,0,0,1,9.4,7.3Zm.7-1.2a.948.948,0,0,1-.8-.9.817.817,0,0,1,.8-.9.349.349,0,0,0,.2-.1.187.187,0,0,0,0-.3,3.506,3.506,0,0,0-.6-1.4c0-.1-.1-.1-.2-.2a.367.367,0,0,0-.3.1.909.909,0,0,1-1.1-.1A.823.823,0,0,1,8,1.1.367.367,0,0,0,8.1.8C8,.7,8,.6,7.9.6A3.506,3.506,0,0,0,6.5,0H6.2c0,.1-.1.2-.1.3a1.063,1.063,0,0,1-.9.8A.817.817,0,0,1,4.3.3.349.349,0,0,0,4.2.1C4,0,4,0,3.9,0A3.506,3.506,0,0,0,2.5.6c-.1,0-.1.1-.2.2a.367.367,0,0,0,.1.3.92.92,0,0,1-.1,1.2,1.063,1.063,0,0,1-1.2.1.367.367,0,0,0-.3-.1.215.215,0,0,0-.2.2A3.506,3.506,0,0,0,0,3.9c0,.1,0,.1.1.2s.1.1.2.1a.948.948,0,0,1,.8.9A.817.817,0,0,1,.3,6a.349.349,0,0,0-.2.1.756.756,0,0,0-.1.4A3.506,3.506,0,0,0,.6,7.9c0,.1.1.1.2.2A.367.367,0,0,0,1.1,8,.932.932,0,0,1,2.4,9.3a.367.367,0,0,0-.1.3.215.215,0,0,0,.2.2,3.506,3.506,0,0,0,1.4.6H4c.1,0,.1,0,.2-.1s.1-.1.1-.2a.948.948,0,0,1,.9-.8.817.817,0,0,1,.9.8.349.349,0,0,0,.1.2.187.187,0,0,0,.3,0,3.506,3.506,0,0,0,1.4-.6c.1,0,.1-.1.2-.1A.367.367,0,0,0,8,9.3a.817.817,0,0,1,.1-1.2A.91.91,0,0,1,9.3,8a.367.367,0,0,0,.3.1c0-.1.1-.1.2-.2.2-.4.4-.9.6-1.4V6.2C10.3,6.2,10.2,6.1,10.1,6.1Z"/>
    </g>
  </g>
</svg>
