<svg xmlns="http://www.w3.org/2000/svg" xmlns:xlink="http://www.w3.org/1999/xlink" viewBox="182 326 11 15">
  <defs>
    <style>
      .cls-1 {
        clip-path: url(#clip-path);
      }

      .cls-2 {
        fill: #fff;
      }

      .cls-3 {
        fill: none;
        stroke: #fff;
        stroke-width: 0.4px;
      }
    </style>
    <clipPath id="clip-path">
      <rect id="Rectangle_3" data-name="Rectangle 3" width="11" height="15"/>
    </clipPath>
  </defs>
  <g id="Group_5" data-name="Group 5" transform="translate(182 326)">
    <g id="Group_3" data-name="Group 3" class="cls-1">
      <path id="Path_2" data-name="Path 2" class="cls-2" d="M1.2,14.1H9.5V12.8H1.2C1.2,13.3,1.2,13.7,1.2,14.1Zm6.3-5c-.1-.2-.1-.5-.2-.8-.2-.3-.5-.6-.7-.9a1.607,1.607,0,0,1-.2-2.3c.2-.2.3-.4.5-.6A2.239,2.239,0,0,0,7.7,3,2.3,2.3,0,0,0,5,.6,2.269,2.269,0,0,0,3.1,2.2a2.041,2.041,0,0,0,.7,2.3,4.349,4.349,0,0,0,.6.7,1.654,1.654,0,0,1,0,1.9,1.38,1.38,0,0,1-.3.4,5.5,5.5,0,0,0-.7.9,1.854,1.854,0,0,0-.2.7Zm2.6.4H.5v3h9.6ZM7.9,9.2h2.3c.3,0,.3,0,.3.3v3.1c0,.2,0,.3-.3.3H9.8v1.4c0,.2,0,.2-.2.2H1.2c-.2,0-.3,0-.3-.3V12.8H.5c-.2,0-.2-.1-.2-.2V9.4c0-.2.1-.2.2-.2H2.9a3.2,3.2,0,0,1,1-1.9,1.525,1.525,0,0,0,.1-2,2.651,2.651,0,0,0-.5-.6,2.348,2.348,0,0,1-.7-2.5A2.467,2.467,0,0,1,4.7.3,2.691,2.691,0,0,1,8,2.4a2.5,2.5,0,0,1-.8,2.4c-.2.2-.5.4-.6.7a1.248,1.248,0,0,0,.2,1.7,3.067,3.067,0,0,1,.9,1.4C7.8,8.8,7.8,9,7.9,9.2Z"/>
    </g>
    <g id="Group_4" data-name="Group 4" class="cls-1">
      <path id="Path_3" data-name="Path 3" class="cls-3" d="M1.2,14.1H9.5V12.8H1.2C1.2,13.3,1.2,13.7,1.2,14.1Zm6.3-5c-.1-.2-.1-.5-.2-.8-.2-.3-.5-.6-.7-.9a1.607,1.607,0,0,1-.2-2.3c.2-.2.3-.4.5-.6A2.239,2.239,0,0,0,7.7,3,2.3,2.3,0,0,0,5,.6,2.269,2.269,0,0,0,3.1,2.2a2.041,2.041,0,0,0,.7,2.3,4.349,4.349,0,0,0,.6.7,1.654,1.654,0,0,1,0,1.9,1.38,1.38,0,0,1-.3.4,5.5,5.5,0,0,0-.7.9,1.854,1.854,0,0,0-.2.7Zm2.6.4H.5v3h9.6ZM7.9,9.2h2.3c.3,0,.3,0,.3.3v3.1c0,.2,0,.3-.3.3H9.8v1.4c0,.2,0,.2-.2.2H1.2c-.2,0-.3,0-.3-.3V12.8H.5c-.2,0-.2-.1-.2-.2V9.4c0-.2.1-.2.2-.2H2.9a3.2,3.2,0,0,1,1-1.9,1.525,1.525,0,0,0,.1-2,2.651,2.651,0,0,0-.5-.6,2.348,2.348,0,0,1-.7-2.5A2.467,2.467,0,0,1,4.7.3,2.691,2.691,0,0,1,8,2.4a2.5,2.5,0,0,1-.8,2.4c-.2.2-.5.4-.6.7a1.248,1.248,0,0,0,.2,1.7,3.067,3.067,0,0,1,.9,1.4C7.8,8.8,7.8,9,7.9,9.2Z"/>
    </g>
  </g>
</svg>
