<svg xmlns="http://www.w3.org/2000/svg" xmlns:xlink="http://www.w3.org/1999/xlink" viewBox="204 327 12 12">
  <defs>
    <style>
      .cls-1 {
        clip-path: url(#clip-path);
      }

      .cls-2 {
        fill: #fff;
      }
    </style>
    <clipPath id="clip-path">
      <rect id="Rectangle_5" data-name="Rectangle 5" width="12" height="12"/>
    </clipPath>
  </defs>
  <g id="Group_7" data-name="Group 7" transform="translate(204 327)">
    <g id="Group_6" data-name="Group 6" class="cls-1">
      <path id="Path_4" data-name="Path 4" class="cls-2" d="M9.4,4.4a2.1,2.1,0,0,0-1.8,1,2.234,2.234,0,0,0-1.8-1A2.138,2.138,0,0,0,4,5.3a2.234,2.234,0,0,0-1.8-1,2.016,2.016,0,0,0-1.1.3A5.113,5.113,0,0,1,5.8,1.4a5.011,5.011,0,0,1,4.7,3.2A3.6,3.6,0,0,0,9.4,4.4Zm2.2,1.9A5.838,5.838,0,0,0,6.2.7V.4A.43.43,0,0,0,5.8,0a.43.43,0,0,0-.4.4V.8A5.67,5.67,0,0,0,0,6.3v.2a.43.43,0,0,0,.4.4.43.43,0,0,0,.4-.4A1.538,1.538,0,0,1,2.3,5,1.538,1.538,0,0,1,3.8,6.5a.43.43,0,0,0,.4.4.43.43,0,0,0,.4-.4A1.5,1.5,0,0,1,5.7,5.1V9.8a1.1,1.1,0,1,1-2.2,0,.43.43,0,0,0-.4-.4c-.2,0-.6.2-.6.4a1.8,1.8,0,1,0,3.6,0V5.1A1.5,1.5,0,0,1,7.2,6.5a.4.4,0,1,0,.8,0,1.5,1.5,0,0,1,3,0,.4.4,0,1,0,.8,0C11.6,6.5,11.6,6.4,11.6,6.3Z"/>
    </g>
  </g>
</svg>
