<svg xmlns="http://www.w3.org/2000/svg" xmlns:xlink="http://www.w3.org/1999/xlink" viewBox="263 326 14 11">
  <defs>
    <style>
      .cls-1 {
        clip-path: url(#clip-path);
      }

      .cls-2 {
        fill: #fff;
      }
    </style>
    <clipPath id="clip-path">
      <rect id="Rectangle_6" data-name="Rectangle 6" width="14" height="11"/>
    </clipPath>
  </defs>
  <g id="Group_9" data-name="Group 9" transform="translate(263 326)">
    <g id="Group_8" data-name="Group 8" class="cls-1">
      <path id="Path_5" data-name="Path 5" class="cls-2" d="M9,9,7.7,8.1,9,7.3ZM4.1,1.2,5.4,2l-1.3.9Zm5.5.4A3.543,3.543,0,0,0,6.1,5.1,2.582,2.582,0,0,1,3.5,7.7,2.737,2.737,0,0,1,.8,5.1,2.616,2.616,0,0,1,3.2,2.5V3.7c.1.1.1.3.3.3h.2c.1,0,.2,0,.2-.1L6.3,2.3c.1,0,.2-.1.2-.3,0-.1-.1-.3-.2-.3L3.9.1A.6.6,0,0,0,3.5,0a.4.4,0,0,0-.2.4V1.6a3.452,3.452,0,0,0,.2,6.9A3.372,3.372,0,0,0,6.9,5.1,2.582,2.582,0,0,1,9.5,2.5a2.647,2.647,0,0,1,2.6,2.6A2.616,2.616,0,0,1,9.7,7.7V6.5a.52.52,0,0,0-.2-.4.3.3,0,0,0-.4,0L6.7,7.8c-.1.1-.2.2-.2.3s.1.3.2.3L9.1,10c.1,0,.1.1.2.1h.2a.52.52,0,0,0,.2-.4V8.5A3.415,3.415,0,0,0,13,5.1,3.458,3.458,0,0,0,9.6,1.6Z"/>
    </g>
  </g>
</svg>
