<svg xmlns="http://www.w3.org/2000/svg" xmlns:xlink="http://www.w3.org/1999/xlink" viewBox="158 317 13 13">
  <defs>
    <style>
      .cls-1 {
        clip-path: url(#clip-path);
      }

      .cls-2 {
        fill: #fff;
      }

      .cls-3, .cls-4 {
        fill: none;
        stroke: #fff;
      }

      .cls-3 {
        stroke-width: 0.25px;
      }

      .cls-4 {
        stroke-width: 0.15px;
      }
    </style>
    <clipPath id="clip-path">
      <rect id="Rectangle_7" data-name="Rectangle 7" width="13" height="13"/>
    </clipPath>
  </defs>
  <g id="Group_20" data-name="Group 20" transform="translate(158 317)">
    <g id="Group_10" data-name="Group 10" class="cls-1">
      <path id="Path_6" data-name="Path 6" class="cls-2" d="M6.2.4h-1A4.058,4.058,0,0,0,3.3.8a10.908,10.908,0,0,0-1.1.6c-.2.2-.3.4-.1.6.1.2.4.2.6.1L2.8,2A4.394,4.394,0,0,1,5,1.3H7.3a1.268,1.268,0,0,1,.6.1,5.094,5.094,0,0,1,1.7.7c.2.1.5.1.6-.1a.471.471,0,0,0-.1-.6c-.1-.1-.2-.1-.3-.2A5.838,5.838,0,0,0,7.6.4ZM.1,6.4c0-.2.2-.3.4-.5a.52.52,0,0,0,.2-.4A4.4,4.4,0,0,1,.9,3.9a3.048,3.048,0,0,1,.8-1.6c.1-.1.1-.1,0-.2A.759.759,0,0,1,2,1.2,5.134,5.134,0,0,1,4.4.2c.3,0,.6-.1.9-.1H7.1a5.059,5.059,0,0,1,3.3,1.1.651.651,0,0,1,.2.9v.1a4.725,4.725,0,0,1,1,2,4.869,4.869,0,0,1,.1,1.2.55.55,0,0,0,.3.5.55.55,0,0,1,.3.5V9.5a1.831,1.831,0,0,1-1.6,1.8H8.4c-.1,0-.2,0-.2.1a.675.675,0,0,1-.6.4h-3a.752.752,0,0,1-.5-.7.858.858,0,0,1,.6-.7H7.6c.1,0,.2,0,.2.1s0,.2-.2.2H4.8a.455.455,0,1,0,0,.9H7.4c.2,0,.3-.1.4-.3.2-.2.2-.3.4-.3h2a1.539,1.539,0,0,0,1.5-1,1.268,1.268,0,0,0,.1-.6v-3c0-.1,0-.2-.2-.3a.755.755,0,0,1-.4-.7,5.7,5.7,0,0,0-.1-1.3,3.839,3.839,0,0,0-.9-1.8.349.349,0,0,0-.2.1.661.661,0,0,1-.6-.1,5.094,5.094,0,0,0-1.7-.7H5.1A3.139,3.139,0,0,0,3,2.3a.9.9,0,0,1-1,.1,4.129,4.129,0,0,0-.7,1.1A4.146,4.146,0,0,0,1,5.1v.4a.755.755,0,0,1-.4.7c-.1.1-.2.1-.2.3V7.9c0,.1,0,.2-.1.2S.1,8.1.1,8C.1,7.4.1,6.9.1,6.4Z"/>
    </g>
    <g id="Group_11" data-name="Group 11" class="cls-1">
      <path id="Path_7" data-name="Path 7" class="cls-3" d="M6.2.4h-1A4.058,4.058,0,0,0,3.3.8a10.908,10.908,0,0,0-1.1.6c-.2.2-.3.4-.1.6.1.2.4.2.6.1L2.8,2A4.394,4.394,0,0,1,5,1.3H7.3a1.268,1.268,0,0,1,.6.1,5.094,5.094,0,0,1,1.7.7c.2.1.5.1.6-.1a.471.471,0,0,0-.1-.6c-.1-.1-.2-.1-.3-.2A5.838,5.838,0,0,0,7.6.4ZM.1,6.4c0-.2.2-.3.4-.5a.52.52,0,0,0,.2-.4A4.4,4.4,0,0,1,.9,3.9a3.048,3.048,0,0,1,.8-1.6c.1-.1.1-.1,0-.2A.759.759,0,0,1,2,1.2,5.134,5.134,0,0,1,4.4.2c.3,0,.6-.1.9-.1H7.1a5.059,5.059,0,0,1,3.3,1.1.651.651,0,0,1,.2.9v.1a4.725,4.725,0,0,1,1,2,4.869,4.869,0,0,1,.1,1.2.55.55,0,0,0,.3.5.55.55,0,0,1,.3.5V9.5a1.831,1.831,0,0,1-1.6,1.8H8.4c-.1,0-.2,0-.2.1a.675.675,0,0,1-.6.4h-3a.752.752,0,0,1-.5-.7.858.858,0,0,1,.6-.7H7.6c.1,0,.2,0,.2.1s0,.2-.2.2H4.8a.455.455,0,1,0,0,.9H7.4c.2,0,.3-.1.4-.3.2-.2.2-.3.4-.3h2a1.539,1.539,0,0,0,1.5-1,1.268,1.268,0,0,0,.1-.6v-3c0-.1,0-.2-.2-.3a.755.755,0,0,1-.4-.7,5.7,5.7,0,0,0-.1-1.3,3.839,3.839,0,0,0-.9-1.8.349.349,0,0,0-.2.1.661.661,0,0,1-.6-.1,5.094,5.094,0,0,0-1.7-.7H5.1A3.139,3.139,0,0,0,3,2.3a.9.9,0,0,1-1,.1,4.129,4.129,0,0,0-.7,1.1A4.146,4.146,0,0,0,1,5.1v.4a.755.755,0,0,1-.4.7c-.1.1-.2.1-.2.3V7.9c0,.1,0,.2-.1.2S.1,8.1.1,8C.1,7.4.1,6.9.1,6.4Z"/>
    </g>
    <g id="Group_12" data-name="Group 12" class="cls-1">
      <path id="Path_8" data-name="Path 8" class="cls-2" d="M10.3,8V9.6c0,.1,0,.1.1.1h.3a.472.472,0,0,0,.5-.5V6.7c0-.3-.2-.4-.5-.5h-.2c-.1,0-.2,0-.2.2C10.3,7,10.3,7.5,10.3,8Zm.3-2a3.678,3.678,0,0,0-.5-2.5c-.1-.1,0-.1.1-.2s.1,0,.2.1a2.7,2.7,0,0,1,.5,1.5V6c0,.1,0,.1.1.1a.752.752,0,0,1,.5.7V9.3a.849.849,0,0,1-.7.8h-.3c-.3-.1-.5-.2-.5-.5V6.4a.458.458,0,0,1,.5-.4Z"/>
    </g>
    <g id="Group_13" data-name="Group 13" class="cls-1">
      <path id="Path_9" data-name="Path 9" class="cls-4" d="M10.3,8V9.6c0,.1,0,.1.1.1h.3a.472.472,0,0,0,.5-.5V6.7c0-.3-.2-.4-.5-.5h-.2c-.1,0-.2,0-.2.2C10.3,7,10.3,7.5,10.3,8Zm.3-2a3.678,3.678,0,0,0-.5-2.5c-.1-.1,0-.1.1-.2s.1,0,.2.1a2.7,2.7,0,0,1,.5,1.5V6c0,.1,0,.1.1.1a.752.752,0,0,1,.5.7V9.3a.849.849,0,0,1-.7.8h-.3c-.3-.1-.5-.2-.5-.5V6.4a.458.458,0,0,1,.5-.4Z"/>
    </g>
    <g id="Group_14" data-name="Group 14" class="cls-1">
      <path id="Path_10" data-name="Path 10" class="cls-2" d="M2,8V6.5c0-.1,0-.1-.1-.1H1.6a.458.458,0,0,0-.5.4V9.3a.43.43,0,0,0,.4.4h.3c.2.1.2,0,.2-.1ZM1.7,6h.2c.3,0,.4.1.4.4V9.5c0,.3-.1.4-.4.4H1.5a.563.563,0,0,1-.7-.6V6.8a.752.752,0,0,1,.5-.7c.1-.1.1-.1.1-.2V5A2.716,2.716,0,0,1,2,3.3c0-.1.1-.1.2,0s.1.1.1.2a2.355,2.355,0,0,0-.5,1A3.812,3.812,0,0,0,1.7,6Z"/>
    </g>
    <g id="Group_15" data-name="Group 15" class="cls-1">
      <path id="Path_11" data-name="Path 11" class="cls-4" d="M2,8V6.5c0-.1,0-.1-.1-.1H1.6a.458.458,0,0,0-.5.4V9.3a.43.43,0,0,0,.4.4h.3c.2.1.2,0,.2-.1ZM1.7,6h.2c.3,0,.4.1.4.4V9.5c0,.3-.1.4-.4.4H1.5a.563.563,0,0,1-.7-.6V6.8a.752.752,0,0,1,.5-.7c.1-.1.1-.1.1-.2V5A2.716,2.716,0,0,1,2,3.3c0-.1.1-.1.2,0s.1.1.1.2a2.355,2.355,0,0,0-.5,1A3.812,3.812,0,0,0,1.7,6Z"/>
    </g>
    <g id="Group_16" data-name="Group 16" class="cls-1">
      <path id="Path_12" data-name="Path 12" class="cls-2" d="M2.8,8V9.3c0,.1,0,.2-.1.2s-.2,0-.2-.2V6.7c0-.1,0-.2.2-.2.1,0,.1.1.1.2Z"/>
    </g>
    <g id="Group_17" data-name="Group 17" class="cls-1">
      <path id="Path_13" data-name="Path 13" class="cls-4" d="M2.8,8V9.3c0,.1,0,.2-.1.2s-.2,0-.2-.2V6.7c0-.1,0-.2.2-.2.1,0,.1.1.1.2Z"/>
    </g>
    <g id="Group_18" data-name="Group 18" class="cls-1">
      <path id="Path_14" data-name="Path 14" class="cls-2" d="M9.5,8V6.7c0-.1,0-.2.1-.2s.1,0,.1.2V9.3a.215.215,0,0,1-.2.2c-.1,0-.1-.1-.1-.2A5.283,5.283,0,0,0,9.5,8Z"/>
    </g>
    <g id="Group_19" data-name="Group 19" class="cls-1">
      <path id="Path_15" data-name="Path 15" class="cls-4" d="M9.5,8V6.7c0-.1,0-.2.1-.2s.1,0,.1.2V9.3a.215.215,0,0,1-.2.2c-.1,0-.1-.1-.1-.2A5.283,5.283,0,0,0,9.5,8Z"/>
    </g>
  </g>
</svg>
