<svg xmlns="http://www.w3.org/2000/svg" xmlns:xlink="http://www.w3.org/1999/xlink" viewBox="182 328 11 11">
  <defs>
    <style>
      .cls-1 {
        clip-path: url(#clip-path);
      }

      .cls-2 {
        fill: #fff;
      }
    </style>
    <clipPath id="clip-path">
      <rect id="Rectangle_24" data-name="Rectangle 24" width="11" height="11"/>
    </clipPath>
  </defs>
  <g id="Group_30" data-name="Group 30" transform="translate(182 328)">
    <g id="Group_29" data-name="Group 29" class="cls-1">
      <path id="Path_23" data-name="Path 23" class="cls-2" d="M5.1,8.3V5.1H8.3V8.3ZM8.3,4.5H5.1a.576.576,0,0,0-.6.6V8.3a.576.576,0,0,0,.6.6H8.3a.576.576,0,0,0,.6-.6V5.1A.576.576,0,0,0,8.3,4.5ZM1.9,8.3V5.1H3.2V8.3ZM3.2,4.5H1.9a.576.576,0,0,0-.6.6V8.3a.576.576,0,0,0,.6.6H3.2a.576.576,0,0,0,.6-.6V5.1A.576.576,0,0,0,3.2,4.5ZM1.9,3.2V1.9H8.3V3.2H1.9ZM8.3,1.3H1.9a.576.576,0,0,0-.6.6V3.2a.576.576,0,0,0,.6.6H8.3a.576.576,0,0,0,.6-.6V1.9A.645.645,0,0,0,8.3,1.3ZM9.6,9.2a.265.265,0,0,1-.3.3H1a.265.265,0,0,1-.3-.3V1A.265.265,0,0,1,1,.7H9.3a.265.265,0,0,1,.3.3ZM9.2,0H1A.945.945,0,0,0,0,1V9.3a1,1,0,0,0,1,1H9.3a1,1,0,0,0,1-1V1A1.09,1.09,0,0,0,9.2,0Z"/>
    </g>
  </g>
</svg>
