<svg xmlns="http://www.w3.org/2000/svg" xmlns:xlink="http://www.w3.org/1999/xlink" viewBox="182 326 12 15">
  <defs>
    <style>
      .cls-1 {
        clip-path: url(#clip-path);
      }

      .cls-2 {
        fill: #fff;
      }
    </style>
    <clipPath id="clip-path">
      <rect id="Rectangle_17" data-name="Rectangle 17" width="12" height="15"/>
    </clipPath>
  </defs>
  <g id="Group_28" data-name="Group 28" transform="translate(182 326)">
    <g id="Group_21" data-name="Group 21" class="cls-1">
      <path id="Path_16" data-name="Path 16" class="cls-2" d="M8.3,12A2.854,2.854,0,0,1,7,12v1.4H7c.1-.1.2-.1.3-.2a.454.454,0,0,1,.5,0c.1.1.2.1.4.2A6.6,6.6,0,0,0,8.3,12Zm1-2A1.561,1.561,0,0,0,7.7,8.5,1.53,1.53,0,0,0,6,10a1.5,1.5,0,0,0,1.6,1.5A1.53,1.53,0,0,0,9.3,10ZM2,11.9H6.4c0-.2,0-.3-.1-.3s-.1-.1-.2-.2a.349.349,0,0,0-.2-.1H4.3c-.2,0-.4-.2-.3-.4,0-.1.2-.2.3-.2H5.6v-.1A2.082,2.082,0,0,1,8,7.9,2.169,2.169,0,0,1,9.9,9.4a1.951,1.951,0,0,1-.7,2.1c-.2.2-.3.3-.2.4h1.4V1.8H2Zm4.6,2.4c-.2-.1-.2-.2-.2-.4V12.6H2.1a.684.684,0,0,1-.7-.7V1.9c0-.4.3-.6.7-.6h8.3a.773.773,0,0,1,.8.7v9.9a.773.773,0,0,1-.8.7H9.1V14c0,.2,0,.3-.2.4H8.7a4.053,4.053,0,0,0-.9-.5,4.053,4.053,0,0,1-.9.5A.774.774,0,0,0,6.6,14.3Z"/>
    </g>
    <g id="Group_22" data-name="Group 22" class="cls-1">
      <path id="Path_17" data-name="Path 17" class="cls-2" d="M.7.6V11c0,.2-.1.3-.2.3A.35.35,0,0,1,0,11V.7A.773.773,0,0,1,.8,0H9.6c.1,0,.2.2.2.3a.319.319,0,0,1-.3.3H.7Z"/>
    </g>
    <g id="Group_23" data-name="Group 23" class="cls-1">
      <path id="Path_18" data-name="Path 18" class="cls-2" d="M6.2,5.4H8.7c.2,0,.4.1.4.3S9,6,8.7,6H3.6c-.2,0-.3-.1-.3-.2-.1-.1,0-.2.1-.3.1,0,.2-.1.3-.1Z"/>
    </g>
    <g id="Group_24" data-name="Group 24" class="cls-1">
      <path id="Path_19" data-name="Path 19" class="cls-2" d="M5.9,7.2H3.7c-.3,0-.4-.2-.4-.3,0-.2.1-.3.4-.3H8.1c.2,0,.4.1.4.3a.265.265,0,0,1-.3.3Z"/>
    </g>
    <g id="Group_25" data-name="Group 25" class="cls-1">
      <path id="Path_20" data-name="Path 20" class="cls-2" d="M5.5,3.6H3.6c-.2,0-.4-.1-.4-.3.1-.2.2-.3.4-.3H7.4c.3,0,.4.2.3.4,0,.1-.1.2-.3.2Z"/>
    </g>
    <g id="Group_26" data-name="Group 26" class="cls-1">
      <path id="Path_21" data-name="Path 21" class="cls-2" d="M3.3,11a.265.265,0,0,1-.3.3.3.3,0,0,1,0-.6A.451.451,0,0,1,3.3,11Z"/>
    </g>
    <g id="Group_27" data-name="Group 27" class="cls-1">
      <path id="Path_22" data-name="Path 22" class="cls-2" d="M7.6,10.6c.4,0,.7-.2.7-.6a.53.53,0,0,0-.6-.6c-.4,0-.7.2-.7.6A.576.576,0,0,0,7.6,10.6Zm0,.6A1.309,1.309,0,0,1,6.3,10,1.389,1.389,0,0,1,7.6,8.8,1.309,1.309,0,0,1,8.9,10,1.309,1.309,0,0,1,7.6,11.2Z"/>
    </g>
  </g>
</svg>
