<svg xmlns="http://www.w3.org/2000/svg" xmlns:xlink="http://www.w3.org/1999/xlink" viewBox="183 291 10 12">
  <defs>
    <style>
      .cls-1 {
        clip-path: url(#clip-path);
      }

      .cls-2 {
        fill: #fff;
      }

      .cls-3 {
        fill: none;
        stroke: #fff;
        stroke-width: 0.25px;
      }
    </style>
    <clipPath id="clip-path">
      <rect id="Rectangle_25" data-name="Rectangle 25" width="10" height="12"/>
    </clipPath>
  </defs>
  <g id="Group_35" data-name="Group 35" transform="translate(183 291)">
    <g id="Group_31" data-name="Group 31" class="cls-1">
      <path id="Path_24" data-name="Path 24" class="cls-2" d="M9.1,3h0A3.7,3.7,0,0,1,7,2.4,8.34,8.34,0,0,1,4.9.8L4.8.7A14.2,14.2,0,0,1,3.5,1.9a5.23,5.23,0,0,1-2.3,1A1.7,1.7,0,0,1,.5,3v.1A14.919,14.919,0,0,0,.7,5.2,10.333,10.333,0,0,0,2,8.5a6.506,6.506,0,0,0,2.6,2.6.187.187,0,0,0,.3,0A6.28,6.28,0,0,0,7,9.2a8.469,8.469,0,0,0,1.5-3A10.891,10.891,0,0,0,9,3.6,1.268,1.268,0,0,0,9.1,3ZM4.8.1A7.289,7.289,0,0,0,7.5,2.3a3.416,3.416,0,0,0,1.7.3h.2v.2A11.252,11.252,0,0,1,8.2,7.9a7.8,7.8,0,0,1-2.4,3,4.129,4.129,0,0,1-1.1.7H4.6A7.74,7.74,0,0,1,1.8,9,11.252,11.252,0,0,1,.4,5.4,12.413,12.413,0,0,1,.1,2.7V2.6H.6a3.743,3.743,0,0,0,1.8-.5A7.778,7.778,0,0,0,4.8.1Z"/>
    </g>
    <g id="Group_32" data-name="Group 32" class="cls-1">
      <path id="Path_25" data-name="Path 25" class="cls-3" d="M9.1,3h0A3.7,3.7,0,0,1,7,2.4,8.34,8.34,0,0,1,4.9.8L4.8.7A14.2,14.2,0,0,1,3.5,1.9a5.23,5.23,0,0,1-2.3,1A1.7,1.7,0,0,1,.5,3v.1A14.919,14.919,0,0,0,.7,5.2,10.333,10.333,0,0,0,2,8.5a6.506,6.506,0,0,0,2.6,2.6.187.187,0,0,0,.3,0A6.28,6.28,0,0,0,7,9.2a8.469,8.469,0,0,0,1.5-3A10.891,10.891,0,0,0,9,3.6,1.268,1.268,0,0,0,9.1,3ZM4.8.1A7.289,7.289,0,0,0,7.5,2.3a3.416,3.416,0,0,0,1.7.3h.2v.2A11.252,11.252,0,0,1,8.2,7.9a7.8,7.8,0,0,1-2.4,3,4.129,4.129,0,0,1-1.1.7H4.6A7.74,7.74,0,0,1,1.8,9,11.252,11.252,0,0,1,.4,5.4,12.413,12.413,0,0,1,.1,2.7V2.6H.6a3.743,3.743,0,0,0,1.8-.5A7.778,7.778,0,0,0,4.8.1Z"/>
    </g>
    <g id="Group_33" data-name="Group 33" class="cls-1">
      <path id="Path_26" data-name="Path 26" class="cls-2" d="M3.6,7.6a.52.52,0,0,0-.4.2A11.185,11.185,0,0,1,2,4.3h.4A11,11,0,0,0,3.6,7.6Z"/>
    </g>
    <g id="Group_34" data-name="Group 34" class="cls-1">
      <path id="Path_27" data-name="Path 27" class="cls-3" d="M3.6,7.6a.52.52,0,0,0-.4.2A11.185,11.185,0,0,1,2,4.3h.4A11,11,0,0,0,3.6,7.6Z"/>
    </g>
  </g>
</svg>
